HIERARCHY
ROOT Hips
{
	OFFSET -3.958830 18.904000 13.208200
	CHANNELS 6 Xposition Yposition Zposition Zrotation Yrotation Xrotation 
	JOINT LHipJoint
	{
		OFFSET 0.000000 0.000000 0.000000
		CHANNELS 3 Zrotation Yrotation Xrotation
		JOINT LeftUpLeg
		{
			OFFSET 1.800000 -1.400000 0.085000
			CHANNELS 3 Zrotation Yrotation Xrotation
			JOINT LeftLeg
			{
				OFFSET 2.215000 -6.000000 0.000000
				CHANNELS 3 Zrotation Yrotation Xrotation
				JOINT LeftFoot
				{
					OFFSET 2.500000 -6.900000 0.000000
					CHANNELS 3 Zrotation Yrotation Xrotation
					JOINT LeftToeBase
					{
						OFFSET 0.200000 -0.500000 1.950000
						CHANNELS 3 Zrotation Yrotation Xrotation
						End Site
						{
							OFFSET 0.000000 0.000000 0.000000
						}
					}
				}
			}
		}
	}
	JOINT RHipJoint
	{
		OFFSET 0.000000 0.000000 0.000000
		CHANNELS 3 Zrotation Yrotation Xrotation
		JOINT RightUpLeg
		{
			OFFSET -1.800000 -1.400000 0.085000
			CHANNELS 3 Zrotation Yrotation Xrotation
			JOINT RightLeg
			{
				OFFSET -2.215000 -6.000000 0.000000
				CHANNELS 3 Zrotation Yrotation Xrotation
				JOINT RightFoot
				{
					OFFSET -2.500000 -6.900000 0.000000
					CHANNELS 3 Zrotation Yrotation Xrotation
					JOINT RightToeBase
					{
						OFFSET -0.200000 -0.500000 1.950000
						CHANNELS 3 Zrotation Yrotation Xrotation
						End Site
						{
							OFFSET 0.000000 0.000000 0.000000
						}
					}
				}
			}
		}
	}
	JOINT LowerBack
	{
		OFFSET 0.000000 0.000000 0.000000
		CHANNELS 3 Zrotation Yrotation Xrotation
		JOINT Spine
		{
			OFFSET -0.087000 1.940000 -0.288900
			CHANNELS 3 Zrotation Yrotation Xrotation
			JOINT Spine1
			{
				OFFSET 0.000000 1.950000 0.060000
				CHANNELS 3 Zrotation Yrotation Xrotation
				JOINT Neck
				{
					OFFSET 0.000000 0.000000 0.000000
					CHANNELS 3 Zrotation Yrotation Xrotation
					JOINT Neck1
					{
						OFFSET 0.000000 1.600000 0.340000
						CHANNELS 3 Zrotation Yrotation Xrotation
						JOINT Head
						{
							OFFSET 0.000000 1.667000 -0.240000
							CHANNELS 3 Zrotation Yrotation Xrotation
							End Site
							{
								OFFSET 0.000000 0.000000 0.000000
							}
						}
					}
				}
				JOINT LeftShoulder
				{
					OFFSET 0.000000 0.000000 0.000000
					CHANNELS 3 Zrotation Yrotation Xrotation
					JOINT LeftArm
					{
						OFFSET 2.700000 1.550000 -0.730000
						CHANNELS 3 Zrotation Yrotation Xrotation
						JOINT LeftForeArm
						{
							OFFSET 5.450000 0.000000 0.000000
							CHANNELS 3 Zrotation Yrotation Xrotation
							JOINT LeftHand
							{
								OFFSET 3.450000 0.000000 0.000000
								CHANNELS 3 Zrotation Yrotation Xrotation
								JOINT LeftHandIndex1
								{
									OFFSET 0.750000 0.000000 0.000000
									CHANNELS 3 Zrotation Yrotation Xrotation
									End Site
									{
										OFFSET 0.000000 0.000000 0.000000
									}
								}
							}
						}
					}
				}
				JOINT RightShoulder
				{
					OFFSET 0.000000 0.000000 0.000000
					CHANNELS 3 Zrotation Yrotation Xrotation
					JOINT RightArm
					{
						OFFSET -2.700000 1.550000 -0.730000
						CHANNELS 3 Zrotation Yrotation Xrotation
						JOINT RightForeArm
						{
							OFFSET -5.450000 0.000000 0.000000
							CHANNELS 3 Zrotation Yrotation Xrotation
							JOINT RightHand
							{
								OFFSET -3.450000 0.000000 0.000000
								CHANNELS 3 Zrotation Yrotation Xrotation
								JOINT RightHandIndex1
								{
									OFFSET -0.750000 0.000000 0.000000
									CHANNELS 3 Zrotation Yrotation Xrotation
									End Site
									{
										OFFSET 0.000000 0.000000 0.000000
									}
								}
							}
						}
					}
				}
			}
		}
	}
}
MOTION
Frames: 12
Frame Time: 0.016667
-3.980430 16.165850 -3.158680 -0.209712 -7.378548 1.596350 -14.847253 11.112784 4.163753 -3.228465 -4.324065 -41.077089 -3.111079 3.370009 9.168699 -0.535226 1.806748 3.838305 0.245570 0.242030 0.084700 18.604938 -11.885800 2.858878 -9.022339 1.164923 13.410236 3.237611 -6.452684 14.462489 -0.677465 -6.038620 2.353777 0.248280 0.198410 0.102710 -4.478031 2.562880 -7.860623 11.363637 6.586882 14.490021 -1.618701 8.022100 14.138432 6.786268 -7.522897 -11.078451 -10.137761 5.798832 34.718150 -3.102800 1.017720 -6.418350 -14.348017 -6.885196 6.496415 -51.177709 10.130289 -4.843766 6.069344 0.536329 0.189616 -4.089352 2.873779 0.016710 0.132590 -0.069640 0.118620 2.541148 21.825812 3.683352 11.585598 39.594324 -1.380446 -108.906250 28.043150 -46.988075 2.249716 -1.585180 -0.060330 0.166940 -0.005870 0.018690 
-3.944890 16.213520 -2.952320 -1.025402 -5.901726 1.228646 -14.785900 11.175686 3.967788 -3.261489 -3.991088 -36.980634 -3.531675 2.777568 4.984870 -0.532854 1.640075 3.938484 0.203090 0.194840 0.052990 18.648747 -12.021037 2.889061 -8.013418 1.014472 13.527364 3.240537 -6.620273 16.485748 -0.680086 -6.171465 2.323341 0.218660 0.229460 0.107470 -4.629573 2.789942 -7.775580 12.752061 6.579794 13.706049 -1.456350 7.775585 14.107791 7.026250 -7.350862 -11.208643 -9.759884 5.076365 34.510724 -3.542800 0.979810 -5.024210 -11.550878 -5.117232 5.824446 -50.072863 11.180964 -5.492445 5.023245 1.021320 0.123180 -4.157185 2.834868 -0.016190 0.163140 -0.099490 0.115660 -0.691106 19.593212 4.070077 7.304557 38.586609 -3.059203 -109.548957 23.510134 -41.237855 2.326513 -1.691574 -0.062890 0.154580 0.009850 0.028220 
-3.903720 16.253500 -2.751020 -1.838943 -3.822146 0.449889 -14.762878 11.315805 3.824882 -3.091527 -3.664539 -33.146617 -4.114269 2.500471 2.340502 -0.500836 1.672299 3.957350 0.164020 0.143540 0.025640 18.654539 -12.030843 2.941754 -6.843197 0.753450 13.797866 3.872224 -6.938656 18.318819 -0.700621 -6.313195 2.283596 0.182900 0.244740 0.110050 -4.681946 2.678804 -7.768987 14.125514 5.905795 13.513876 -1.516252 6.951599 13.950200 7.321636 -7.373834 -11.510241 -9.893725 4.638908 34.968592 -3.835510 0.894260 -3.730330 -9.848500 -3.993260 5.480662 -48.712036 12.662976 -6.070426 4.263806 1.672141 0.081652 -4.195301 2.805247 -0.027690 0.174660 -0.116930 0.111630 -2.976550 18.178817 4.553677 2.551571 37.361429 -5.071601 -109.072585 20.380987 -36.118676 2.403821 -1.742219 -0.065800 0.139150 0.024190 0.032860 
-3.863540 16.283080 -2.569540 -2.241895 -2.045369 -0.289922 -14.800404 11.503327 3.752162 -2.847177 -3.396256 -30.465716 -5.010912 2.517077 1.270344 -0.445755 1.797382 3.933794 0.128120 0.098260 -0.001400 18.603797 -11.942584 2.978278 -5.653449 0.409323 13.523816 4.254533 -7.044231 19.304773 -0.697605 -6.321086 2.287090 0.147020 0.259790 0.113600 -4.569593 2.303988 -7.800585 14.489331 5.177612 13.912005 -1.039720 6.090815 13.487576 7.390051 -7.692104 -11.879044 -10.649316 4.512599 35.102827 -4.018130 0.887990 -2.641750 -8.711560 -3.198916 5.311841 -47.951832 14.318217 -6.682986 3.759144 2.415569 0.074579 -4.226351 2.783647 -0.039580 0.182460 -0.129630 0.110730 -4.269567 17.577999 5.020903 -1.842265 36.036445 -6.887084 -108.734392 18.132713 -32.228572 2.468149 -1.769442 -0.064170 0.125230 0.035280 0.042080 
-3.830240 16.309060 -2.400610 -2.186344 -0.105697 -1.065183 -14.856354 11.668392 3.709940 -3.134949 -3.331887 -28.317002 -5.521700 2.596382 1.133190 -0.409889 1.886617 3.911854 0.109050 0.075500 -0.017020 18.543984 -11.846405 3.002277 -4.510729 0.031502 12.870795 4.164553 -6.907785 19.576209 -0.677398 -6.220553 2.322652 0.127230 0.261920 0.113110 -4.427337 1.935657 -7.828691 14.195269 4.578175 14.481324 -0.596132 5.321005 13.176202 7.418606 -7.779970 -12.065273 -10.970979 4.457462 35.424508 -4.065700 0.892240 -2.010170 -7.656059 -2.455213 5.143351 -47.126624 15.405298 -7.181345 3.045739 2.265446 -0.040817 -4.231963 2.771856 -0.044570 0.183220 -0.135720 0.107410 -5.373439 16.878826 5.306375 -4.531661 35.273666 -7.898182 -109.022512 16.044420 -29.296060 2.505456 -1.790844 -0.061510 0.113740 0.041880 0.045520 
-3.797370 16.323900 -2.225140 -2.114088 1.861662 -1.584204 -14.883950 11.761889 3.649206 -3.452888 -3.278765 -26.608333 -5.739895 2.744240 1.792220 -0.371517 1.962498 3.901559 0.071890 0.031430 -0.055860 18.518386 -11.803015 3.057476 -3.345389 -0.502142 11.931950 3.981485 -6.612440 18.445914 -0.626892 -6.026526 2.396321 0.098570 0.285190 0.110980 -4.381378 1.795329 -7.841593 14.024675 4.246990 14.642604 0.005785 4.848206 12.704828 7.197071 -7.811323 -12.190244 -11.069666 4.078090 35.477045 -3.933210 0.387960 -0.835110 -6.166375 -1.296699 4.766340 -47.303143 16.261508 -8.092832 3.084696 0.425026 -0.202009 -4.232710 2.779840 -0.064910 0.194800 -0.160500 0.109890 -6.460637 15.888781 5.781642 -4.955067 34.429278 -7.849728 -110.830599 14.726570 -28.319905 2.529169 -1.813766 -0.064190 0.103510 0.055950 0.058660 
-3.761430 16.340250 -2.056160 -2.368389 4.064914 -2.099020 -14.871108 11.784162 3.571896 -3.953071 -3.209030 -24.977343 -5.287560 2.792039 2.479577 -0.342455 1.971818 3.911159 0.055260 0.025510 -0.079600 18.540148 -11.811844 3.142857 -1.795959 -1.128812 10.685294 3.757565 -6.241399 16.834818 -0.577517 -5.779775 2.482097 0.093120 0.299510 0.106070 -4.474192 1.888507 -7.843129 14.640061 3.713463 14.771001 0.517529 4.244120 12.466571 7.047607 -7.946923 -12.144650 -11.018944 4.113870 35.030428 -3.915690 0.303280 -0.452300 -3.871825 0.537808 4.055767 -49.591979 16.639838 -9.575906 4.590470 -2.923371 -0.370412 -4.225275 2.807809 -0.091750 0.203240 -0.173720 0.115340 -8.469092 14.550486 6.261423 -2.397555 35.156428 -6.490099 -114.139277 14.066736 -29.825109 2.534109 -1.831629 -0.060350 0.100500 0.056540 0.074570 
-3.733260 16.361340 -1.906090 -2.102088 4.407733 -2.316781 -14.858112 11.789000 3.509681 -3.403391 -3.112342 -24.258376 -6.086836 3.116428 3.779416 -0.305783 2.088443 3.879818 0.053820 0.027670 -0.081670 18.548479 -11.897048 3.114261 -2.066756 -1.196459 8.626163 3.788951 -5.960319 15.413801 -0.504752 -5.524651 2.578414 0.091420 0.308920 0.104930 -4.512108 2.069090 -7.788354 14.218351 4.004262 14.509416 0.737476 4.417125 12.861050 6.994738 -7.292797 -12.093773 -9.826390 3.614366 35.170882 -4.159360 0.176110 0.316510 -3.733583 0.597752 4.026642 -49.954907 16.438378 -10.149344 6.287087 -5.606158 -0.529673 -4.203796 2.860398 -0.113170 0.217080 -0.182030 0.127040 -8.446033 13.963305 6.392138 -0.939481 35.197660 -5.439122 -116.340804 14.192718 -31.370955 2.525727 -1.849076 -0.056140 0.096790 0.043090 0.082420 
-3.703210 16.377860 -1.768350 -2.034395 4.216119 -2.856824 -14.797056 11.770264 3.443271 -2.902259 -3.010760 -23.132924 -6.670481 3.373311 4.696690 -0.304215 2.216905 3.839775 0.063880 0.034650 -0.072000 18.605114 -12.011488 3.091864 -2.276297 -1.186946 6.651739 3.824988 -5.745585 14.567189 -0.447537 -5.312561 2.648651 0.103090 0.309150 0.104270 -4.679767 2.345554 -7.727286 14.857048 4.284509 14.299039 0.078036 4.843479 13.441776 6.972174 -6.644556 -11.609251 -8.697268 2.828533 35.964129 -4.417830 -0.647420 0.364420 -4.630079 0.829959 3.885873 -48.143846 15.456791 -10.311078 6.727569 -10.540747 -0.989247 -4.129646 2.930964 -0.112780 0.221080 -0.184610 0.128540 -7.526490 12.868563 6.104515 0.933489 35.349358 -3.886110 -117.861137 15.581616 -34.134190 2.487704 -1.841731 -0.060140 0.105870 0.040920 0.079220 
-3.675790 16.391370 -1.632070 -1.823793 4.933083 -3.227406 -14.716499 11.654257 3.384159 -3.059031 -3.081471 -21.997995 -6.915223 3.543654 5.572242 -0.321824 2.296044 3.815735 0.095500 0.076850 -0.062100 18.697714 -12.154647 3.068323 -2.313332 -1.171212 4.622444 4.020781 -5.596066 13.972865 -0.403612 -5.133640 2.701791 0.142050 0.317070 0.102180 -4.946837 2.822421 -7.637008 15.378008 4.306588 13.543822 -0.721912 4.882903 14.254786 6.911227 -5.867010 -10.831265 -6.994230 2.895952 36.498798 -3.829750 -1.097870 -0.186550 -4.733721 1.756493 3.458325 -48.296815 13.628562 -11.067371 10.241274 -17.769129 -1.843313 -4.056918 3.054949 -0.114640 0.226080 -0.186140 0.138900 -7.175219 11.007351 5.737412 7.023605 37.257228 0.461242 -120.767027 18.745548 -41.992992 2.396032 -1.819777 -0.064160 0.126900 0.034670 0.080710 
-3.655190 16.402890 -1.495950 -1.725187 5.776540 -3.520511 -14.622360 11.503637 3.325886 -3.364868 -3.158001 -21.048472 -6.849838 3.650252 6.449663 -0.343932 2.331980 3.799274 0.132610 0.127050 -0.041690 18.803832 -12.326584 3.051396 -2.268470 -1.084593 2.478217 4.538500 -5.579967 13.901888 -0.369618 -4.988189 2.735580 0.182780 0.312780 0.101960 -5.258365 3.412869 -7.549937 15.894969 4.255354 12.588220 -1.846109 4.801055 15.234097 6.990840 -4.786170 -10.156842 -4.542378 3.230244 37.126198 -3.177280 -1.148900 -0.927370 -4.236318 3.036910 3.138186 -49.565124 12.111027 -12.510298 14.359207 -27.846416 -3.463359 -3.957095 3.205528 -0.113730 0.225790 -0.178690 0.143570 -7.558753 8.692573 5.526774 16.606621 39.496419 7.540046 -123.491616 23.385666 -54.270178 2.274815 -1.786100 -0.062690 0.141430 0.025020 0.078250 
-3.641710 16.421070 -1.373000 -1.318022 6.427609 -3.636747 -14.525536 11.372430 3.286976 -4.061966 -3.279623 -20.490929 -6.264730 3.697921 7.713805 -0.378678 2.315524 3.788844 0.183770 0.187160 -0.008180 18.906282 -12.496744 3.021041 -2.586078 -0.882243 0.040163 5.209119 -5.631278 14.058697 -0.345507 -4.822626 2.766069 0.221340 0.286470 0.106370 -5.567606 3.950746 -7.484875 16.308524 4.375809 11.608125 -3.794085 4.753846 16.427248 6.913310 -3.367643 -9.834996 -1.609899 3.268841 38.384588 -2.069880 -1.467040 -2.235810 -3.845008 3.707302 2.979530 -50.090965 9.903053 -12.635052 21.492869 -37.209545 -6.207587 -3.870148 3.294826 -0.087100 0.203280 -0.148440 0.145380 -7.538528 6.523383 6.001663 29.978587 41.192904 16.524019 -125.019353 30.469130 -71.831539 2.111685 -1.751764 -0.052870 0.152100 0.011570 0.071370 
